<?xml version="1.0" ?><svg id="Layer_1" style="enable-background:new 0 0 512 512;" version="1.1" viewBox="0 0 512 512" xml:space="preserve" xmlns="http://www.w3.org/2000/svg" xmlns:xlink="http://www.w3.org/1999/xlink"><style type="text/css">
	.st0{fill:#38556D;}
	.st1{fill:#102535;}
	.st2{fill:#07D8C9;}
	.st3{fill:#006D6A;}
	.st4{fill:#FFD400;}
	.st5{fill:#EF9900;}
	.st6{fill:#EF7875;}
	.st7{fill:#D22D33;}
	.st8{fill:#FFFFFF;}
</style><g id="XMLID_566_"><g id="XMLID_453_"><rect class="st0" height="89.6" id="XMLID_339_" width="187.3" x="16.7" y="149"/><polygon class="st0" id="XMLID_456_" points="440.7,95.6 247.8,161.6 247.8,72.1 440.7,6 495.3,40.3   "/><polygon class="st1" id="XMLID_455_" points="247.8,161.6 203.9,238.6 203.9,149 247.8,72.1   "/><rect class="st2" height="89.6" id="XMLID_459_" width="187.3" x="16.7" y="238.1"/><polygon class="st2" id="XMLID_458_" points="440.7,184.7 247.8,250.8 247.8,161.2 440.7,95.1 495.3,129.5   "/><polygon class="st3" id="XMLID_457_" points="247.8,250.8 203.9,327.7 203.9,238.1 247.8,161.2   "/><rect class="st4" height="89.6" id="XMLID_462_" width="187.3" x="16.7" y="327.3"/><polygon class="st4" id="XMLID_461_" points="440.7,273.9 247.8,339.9 247.8,250.4 440.7,184.3 495.3,218.6   "/><polygon class="st5" id="XMLID_460_" points="247.8,339.9 203.9,416.9 203.9,327.3 247.8,250.4   "/><rect class="st6" height="89.6" id="XMLID_465_" width="187.3" x="16.7" y="416.4"/><polygon class="st6" id="XMLID_464_" points="440.7,363 247.8,429.1 247.8,339.5 440.7,273.4 495.3,307.8   "/><polygon class="st7" id="XMLID_463_" points="247.8,429.1 203.9,506 203.9,416.4 247.8,339.5   "/></g><g id="XMLID_617_"><path class="st8" d="M85.9,263.3c-4.5,0-8.1,1.4-10.8,4.3c-2.7,2.9-4.1,6.9-4.1,12V291c0,5.1,1.4,9.1,4.1,12    c2.7,2.9,6.3,4.3,10.9,4.3c4.5,0,8.1-1.4,10.8-4.3c2.7-2.9,4.1-6.9,4.1-12v-11.4c0-5.1-1.4-9.1-4.1-12    C94,264.8,90.4,263.3,85.9,263.3z M91,291.7c0,2.7-0.4,4.7-1.3,6c-0.9,1.4-2.1,2-3.7,2c-1.6,0-2.9-0.7-3.7-2    c-0.9-1.4-1.3-3.4-1.3-6V279c0-2.6,0.4-4.6,1.3-6c0.9-1.4,2.1-2.1,3.7-2.1c1.6,0,2.8,0.7,3.7,2.1c0.9,1.4,1.3,3.4,1.3,6V291.7z" id="XMLID_634_"/><path class="st8" d="M119.6,299.1l-0.1-0.1l5.2-6.2c3.8-4.1,6.4-7.2,7.8-9.3c1.4-2.1,2.1-4.5,2.1-7.2    c0-4-1.3-7.2-3.8-9.5c-2.6-2.3-6.2-3.5-10.9-3.5c-4.5,0-8.1,1.4-10.8,4.1c-2.7,2.8-4,6.1-3.9,10.1l0.1,0.2h9.7    c0-2,0.4-3.6,1.3-4.8c0.9-1.3,2.1-1.9,3.6-1.9c1.6,0,2.8,0.5,3.6,1.5c0.7,1,1.1,2.3,1.1,4c0,1.2-0.4,2.5-1.2,4.1    c-0.8,1.6-2.1,3.4-3.9,5.4l-13.2,14.5v6.5h29.8v-7.7H119.6z" id="XMLID_651_"/></g><g id="XMLID_574_"><path class="st8" d="M85.8,351.8c-4.5,0-8.1,1.4-10.8,4.3c-2.7,2.9-4,6.9-4,11.9v11.3c0,5.1,1.4,9.1,4.1,11.9    c2.7,2.9,6.3,4.3,10.8,4.3c4.4,0,8-1.4,10.7-4.3c2.7-2.9,4.1-6.9,4.1-11.9v-11.3c0-5.1-1.4-9-4.1-11.9    C93.9,353.2,90.3,351.8,85.8,351.8z M90.8,380c0,2.7-0.4,4.7-1.3,6c-0.9,1.4-2.1,2-3.6,2c-1.6,0-2.8-0.7-3.7-2    c-0.9-1.4-1.3-3.4-1.3-6v-12.6c0-2.6,0.4-4.6,1.3-5.9c0.9-1.4,2.1-2,3.7-2c1.6,0,2.8,0.7,3.7,2c0.9,1.4,1.3,3.3,1.3,5.9V380z" id="XMLID_616_"/><path class="st8" d="M134.3,376.9c-1.2-1.7-3-2.9-5.3-3.8c2-0.9,3.6-2.2,4.8-3.8c1.2-1.6,1.8-3.4,1.8-5.3    c0-3.9-1.4-6.9-4.2-9c-2.8-2.1-6.5-3.2-11.1-3.2c-4,0-7.4,1.1-10.1,3.2c-2.8,2.1-4.1,4.9-4,8.2l0.1,0.2h9.6c0-1.2,0.4-2.1,1.3-2.9    c0.9-0.7,1.9-1.1,3.2-1.1c1.7,0,3,0.5,3.9,1.4c1,0.9,1.5,2.1,1.5,3.4c0,1.7-0.5,3-1.4,4c-1,1-2.3,1.4-4.1,1.4h-4.7v7.3h4.7    c2,0,3.5,0.5,4.6,1.4c1.1,0.9,1.6,2.5,1.6,4.5c0,1.5-0.6,2.7-1.7,3.7c-1.1,1-2.6,1.5-4.4,1.5c-1.5,0-2.7-0.5-3.7-1.4    c-1-0.9-1.4-2.1-1.4-3.5h-9.6l-0.1,0.2c-0.1,4,1.3,7,4.3,9.1c3,2.1,6.5,3.1,10.5,3.1c4.6,0,8.5-1.1,11.5-3.3    c3-2.2,4.5-5.3,4.5-9.2C136.2,380.6,135.5,378.6,134.3,376.9z" id="XMLID_650_"/></g><g id="XMLID_466_"><path class="st8" d="M85.8,440.2c-4.5,0-8.1,1.4-10.7,4.3c-2.7,2.9-4,6.8-4,11.9v11.3c0,5.1,1.4,9.1,4.1,11.9    c2.7,2.9,6.3,4.3,10.8,4.3c4.4,0,8-1.4,10.7-4.3c2.7-2.9,4.1-6.8,4.1-11.9v-11.3c0-5.1-1.4-9-4.1-11.9    C93.8,441.6,90.2,440.2,85.8,440.2z M90.8,468.3c0,2.6-0.4,4.6-1.3,6c-0.9,1.4-2.1,2-3.6,2c-1.6,0-2.8-0.7-3.7-2    c-0.9-1.4-1.3-3.4-1.3-6v-12.5c0-2.6,0.4-4.6,1.3-5.9c0.9-1.4,2.1-2,3.6-2c1.6,0,2.8,0.7,3.7,2c0.9,1.4,1.3,3.3,1.3,5.9V468.3z" id="XMLID_571_"/><path class="st8" d="M131.9,466.7v-25.9H122v0.1l-17.5,27.4l0.6,6.1H122v9h9.9v-9h4.3v-7.6H131.9z M122,466.7h-9    l7.8-11.1l1.1-2.2l0.2,0V466.7z" id="XMLID_655_"/></g><g id="XMLID_635_"><path class="st8" d="M88,171.9c-5.2,0-9.3,1.7-12.4,5c-3.1,3.3-4.6,7.9-4.6,13.7v13c0,5.8,1.6,10.4,4.7,13.7    c3.1,3.3,7.2,5,12.4,5c5.1,0,9.2-1.7,12.3-5c3.1-3.3,4.7-7.9,4.7-13.7v-13c0-5.8-1.6-10.4-4.7-13.7    C97.3,173.5,93.1,171.9,88,171.9z M93.8,204.2c0,3-0.5,5.3-1.5,6.9c-1,1.6-2.4,2.3-4.2,2.3c-1.8,0-3.3-0.8-4.2-2.3    c-1-1.6-1.5-3.9-1.5-6.9v-14.4c0-3,0.5-5.3,1.5-6.8c1-1.6,2.4-2.4,4.2-2.4c1.8,0,3.2,0.8,4.2,2.4c1,1.6,1.5,3.8,1.5,6.8V204.2z" id="XMLID_649_"/><polygon class="st8" id="XMLID_652_" points="115,173.6 115,182.3 124.8,182.3 124.8,221.5 136.2,221.5 136.2,171.9   "/></g></g></svg>